<?xml version="1.0" standalone="no"?>
<!DOCTYPE svg PUBLIC "-//W3C//DTD SVG 20010904//EN"
 "http://www.w3.org/TR/2001/REC-SVG-20010904/DTD/svg10.dtd">
<svg version="1.0" xmlns="http://www.w3.org/2000/svg"
 width="378.000000pt" height="378.000000pt" viewBox="0 0 378.000000 378.000000"
 preserveAspectRatio="xMidYMid meet">
<metadata>
Created by potrace 1.11, written by Peter Selinger 2001-2013
</metadata>
<g transform="translate(0.000000,378.000000) scale(0.100000,-0.100000)"
fill="#000000" stroke="none">
<path d="M0 1890 l0 -1890 1890 0 1890 0 0 1890 0 1890 -1890 0 -1890 0 0
-1890z m3500 0 l0 -1610 -1610 0 -1610 0 0 1610 0 1610 1610 0 1610 0 0 -1610z"/>
<path d="M1180 2590 l0 -630 -330 0 -330 0 0 -706 c0 -598 2 -708 14 -720 12
-12 89 -14 470 -14 l456 0 0 580 0 580 140 0 140 0 0 -580 0 -580 140 0 140 0
0 580 0 580 130 0 130 0 0 -580 0 -580 470 0 470 0 0 1350 0 1350 -470 0 -470
0 0 -630 0 -630 -130 0 -130 0 0 630 0 630 -140 0 -140 0 0 -630 0 -630 -140
0 -140 0 0 630 0 630 -140 0 -140 0 0 -630z m1760 -140 l0 -490 -190 0 -190 0
0 490 0 490 190 0 190 0 0 -490z m-1760 -1210 l0 -440 -190 0 -190 0 0 440 0
440 190 0 190 0 0 -440z m1760 0 l0 -440 -190 0 -190 0 0 440 0 440 190 0 190
0 0 -440z"/>
</g>
</svg>
